<svg version="1.1" id="Layer_1" xmlns="http://www.w3.org/2000/svg" xmlns:xlink="http://www.w3.org/1999/xlink" x="0px" y="0px"
	 width="100%" viewBox="0 0 720 352" enable-background="new 0 0 720 352" xml:space="preserve">
<path fill="#000000" opacity="1.000000" stroke="none" 
	d="
M577.688660,299.567749 
	C584.030640,298.465179 589.938416,297.582611 595.974915,297.627441 
	C599.337219,297.652466 600.286316,299.142822 600.078003,302.272461 
	C599.463135,311.511047 599.480225,311.171600 590.027588,312.456085 
	C576.680298,314.269745 563.443604,316.893951 550.098633,318.728088 
	C535.205078,320.775085 520.270325,321.661041 505.493530,317.540588 
	C498.647949,315.631744 492.339813,312.647034 487.109344,307.846252 
	C485.035767,305.942993 483.679474,306.201721 481.531738,307.451202 
	C467.037201,315.883636 451.108887,319.002899 434.596771,319.185608 
	C425.875854,319.282166 419.291046,314.628723 416.815704,306.370758 
	C414.351501,298.149933 409.128387,293.962646 401.620178,290.871277 
	C394.722260,288.031189 388.336182,283.950409 381.716003,280.432373 
	C376.019470,277.405151 370.933014,273.754791 368.341705,267.517944 
	C367.088837,264.502502 365.209442,264.360901 362.387268,265.680695 
	C356.178406,268.584259 349.849365,268.260559 343.489136,265.804260 
	C304.185059,250.625259 264.839508,235.553421 225.555191,220.323563 
	C211.111160,214.723862 205.704941,203.029907 211.122879,188.648804 
	C220.340759,164.181229 229.773361,139.792450 239.356995,115.465614 
	C244.371658,102.736542 256.868652,97.704826 270.295593,102.819351 
	C291.772095,111.000099 313.170044,119.386940 334.604797,127.677399 
	C349.050720,133.264725 363.522614,138.785797 377.932556,144.464233 
	C380.328705,145.408478 382.349792,145.105988 384.634399,144.280945 
	C396.538269,139.982071 408.644501,136.198120 420.376984,131.480545 
	C439.484985,123.797310 457.764465,125.978561 476.002563,134.317276 
	C498.852081,144.764420 519.666199,158.534729 540.287170,172.693558 
	C567.887817,191.644806 594.196350,212.480896 623.102661,229.524155 
	C625.397827,230.877365 626.117859,232.271835 624.674072,234.754517 
	C618.338379,245.649323 621.155457,245.407257 610.647156,239.100784 
	C589.619202,226.481049 570.108337,211.624451 550.116089,197.479736 
	C526.991882,181.119110 503.904694,164.690491 478.637726,151.679626 
	C473.012756,148.783127 467.187714,146.329224 461.224701,144.156036 
	C451.317627,140.545364 441.402618,139.963425 431.385132,143.385330 
	C420.846619,146.985168 410.353424,150.717651 398.809509,154.752487 
	C403.334076,160.610886 404.670288,166.771454 404.524872,173.382263 
	C404.477081,175.554626 406.654022,175.553329 408.339081,175.647110 
	C432.610382,176.997940 456.876465,178.460419 481.157684,179.599213 
	C485.550507,179.805252 486.907318,181.007660 486.518097,185.486572 
	C485.730255,194.552017 485.967743,194.726074 476.610779,194.176956 
	C445.197357,192.333450 413.791016,190.369080 382.381714,188.455200 
	C367.923218,187.574203 353.458130,186.787064 339.010254,185.757568 
	C336.065765,185.547745 335.007141,186.996475 334.562286,189.281570 
	C333.596252,194.243942 335.274292,198.451141 338.629089,202.096313 
	C346.526306,210.677109 356.944427,214.533234 367.745270,217.698456 
	C380.767548,221.514664 394.305084,222.458984 407.361755,220.211548 
	C430.061615,216.304260 448.007996,223.563873 464.041840,239.018356 
	C474.699493,249.290924 485.334290,259.683136 497.504700,268.279663 
	C502.564240,271.853455 507.765137,275.161713 513.647766,277.159851 
	C516.648499,278.179077 517.471252,279.650574 516.474670,282.745544 
	C513.091003,293.254303 515.341431,293.896423 503.953674,288.904694 
	C499.142670,286.795837 498.160095,290.965179 496.197998,293.045593 
	C493.886597,295.496429 496.802307,296.858276 498.380066,298.037079 
	C505.597107,303.429260 513.980896,305.298798 522.781311,305.690186 
	C539.730530,306.444061 556.248596,303.168610 572.803711,300.255280 
	C574.277771,299.995880 575.767822,299.826874 577.688660,299.567749 
M281.896301,226.515884 
	C285.327789,227.797546 288.769897,229.051514 292.188965,230.365479 
	C310.685394,237.473816 329.159454,244.640701 347.677216,251.693024 
	C354.847931,254.423920 358.548706,252.690338 361.395294,245.578232 
	C362.447083,242.950287 363.236176,240.203812 364.452606,237.658371 
	C366.213654,233.973434 365.633789,232.131561 361.307739,230.929001 
	C349.973724,227.778366 339.345062,222.969009 330.610474,214.835861 
	C321.373871,206.235275 317.178955,195.912872 320.970856,183.290482 
	C324.492889,171.566422 326.929688,170.115128 339.085022,171.011185 
	C354.192932,172.124924 369.317169,173.036362 384.443481,173.869949 
	C389.470581,174.147003 391.225525,170.949280 388.833923,166.466629 
	C387.751251,164.437302 385.982880,163.227600 383.934143,162.411469 
	C380.066986,160.870956 376.167847,159.410889 372.285126,157.909363 
	C336.717957,144.154785 301.155151,130.388840 265.581451,116.651123 
	C258.879761,114.063095 254.919724,115.639496 252.420670,122.095772 
	C243.103897,146.165543 233.853745,170.261230 224.635559,194.368973 
	C222.503067,199.945969 224.076645,203.577209 229.498825,206.126968 
	C230.851440,206.763046 232.279846,207.238754 233.676453,207.780396 
	C249.512924,213.922470 265.349976,220.063019 281.896301,226.515884 
M435.848389,285.528290 
	C447.334320,279.496216 457.881317,272.136597 468.024658,263.632751 
	C464.910614,259.202759 461.015381,256.573090 457.761414,253.315384 
	C455.684753,251.236374 453.956329,251.352158 451.717621,253.094498 
	C446.849884,256.882935 441.457764,259.841827 436.004089,262.725769 
	C427.564575,267.188599 419.118256,267.691040 410.045074,264.569458 
	C399.943390,261.093994 390.273315,256.729126 380.690704,252.093933 
	C379.310760,251.426437 378.041168,250.124084 375.603729,250.975800 
	C379.160583,255.919296 380.145203,262.323456 385.384521,265.457428 
	C398.662994,273.400085 412.302795,280.700439 426.922913,285.973480 
	C429.699677,286.974976 432.416595,287.241760 435.848389,285.528290 
M418.694550,234.300735 
	C406.683228,235.344131 394.662048,236.165039 382.491821,235.794098 
	C391.607849,241.506027 401.291656,245.728851 411.172119,249.507996 
	C422.037140,253.663727 434.316040,250.270309 442.140686,240.946335 
	C435.803955,234.707947 428.043365,233.454834 418.694550,234.300735 
M476.222198,275.907104 
	C462.577179,286.665131 448.887512,297.348816 431.913513,302.549011 
	C442.125610,311.263824 480.232178,295.414520 487.413086,279.032654 
	C483.821442,277.902893 482.332458,271.418396 476.222198,275.907104 
z"/>
<path fill="#000000" opacity="1.000000" stroke="none" 
	d="
M177.189316,258.698456 
	C174.080215,255.644394 174.276505,253.434326 177.615936,250.835464 
	C187.712585,242.977844 197.656647,234.918930 207.509293,226.756332 
	C210.228073,224.503922 211.937943,224.809494 214.073044,227.404572 
	C216.160812,229.942139 216.416595,231.663223 213.543243,233.921051 
	C203.355362,241.926559 193.353882,250.169067 183.261902,258.297119 
	C181.484238,259.728882 179.692276,261.778168 177.189316,258.698456 
z"/>
<path fill="#000000" opacity="1.000000" stroke="none" 
	d="
M198.040604,69.144623 
	C200.282806,67.605972 201.339691,68.926926 202.438675,70.284241 
	C210.815231,80.629646 219.253357,90.925667 227.568085,101.320442 
	C230.639969,105.160820 230.075974,106.173637 223.431732,109.854431 
	C220.845078,108.776070 219.690430,106.228554 218.044464,104.211708 
	C210.889114,95.444016 203.977646,86.471153 196.633484,77.866524 
	C193.479111,74.170792 193.345718,71.666351 198.040604,69.144623 
z"/>
<path fill="#000000" opacity="1.000000" stroke="none" 
	d="
M239.592987,266.688599 
	C241.078873,262.756958 242.570694,259.235657 243.752838,255.613297 
	C244.831375,252.308487 246.725403,252.259537 249.510941,253.400589 
	C252.089676,254.456924 253.901031,255.342117 252.540192,258.779236 
	C247.594360,271.270905 242.813263,283.828888 238.089417,296.406677 
	C236.888885,299.603241 235.095596,299.715546 232.291290,298.565521 
	C229.587479,297.456696 228.096710,296.312073 229.410202,293.049377 
	C232.879410,284.432007 236.127731,275.725739 239.592987,266.688599 
z"/>
<path fill="#000000" opacity="1.000000" stroke="none" 
	d="
M148.374191,193.654877 
	C147.811386,190.883026 148.994370,189.998047 151.204086,189.654984 
	C164.679001,187.562881 178.152588,185.457397 191.601379,183.205627 
	C194.848007,182.662033 195.817001,184.291962 196.138504,186.930252 
	C196.452179,189.504395 196.711502,191.832809 192.965103,192.375763 
	C179.966034,194.259644 166.973450,196.221878 154.039078,198.498932 
	C149.920120,199.224045 148.456741,197.871490 148.374191,193.654877 
z"/>
<path fill="#000000" opacity="1.000000" stroke="none" 
	d="
M314.711792,95.295212 
	C306.669159,93.846550 306.446686,93.421173 309.128326,86.556725 
	C313.234894,76.044830 317.315125,65.522377 321.345245,54.980972 
	C324.187531,47.546497 325.066559,47.243141 332.238190,52.066387 
	C328.376770,62.134663 324.596893,72.376274 320.500092,82.489487 
	C318.774078,86.750237 317.985565,91.438194 314.711792,95.295212 
z"/>
<path fill="#000000" opacity="1.000000" stroke="none" 
	d="
M184.199844,141.931580 
	C175.470993,138.546158 167.136200,135.204269 158.698654,132.145844 
	C155.316864,130.920013 154.395676,129.318100 155.701996,125.830490 
	C156.985626,122.403450 158.727631,122.189156 161.794464,123.405647 
	C173.691101,128.124542 185.639587,132.716187 197.622818,137.211075 
	C200.946976,138.457947 202.535873,139.740234 200.876602,143.727417 
	C199.282196,147.558731 197.292007,147.252029 194.302017,145.910950 
	C191.120804,144.484100 187.808014,143.350540 184.199844,141.931580 
z"/>
<path fill="#000000" opacity="1.000000" stroke="none" 
	d="
M259.679504,72.100616 
	C258.396759,63.963985 257.197662,56.256248 255.861374,48.572372 
	C255.236221,44.977749 255.616028,42.687443 260.094421,42.064327 
	C264.592651,41.438450 264.664673,44.360031 265.104126,47.062401 
	C267.127350,59.504066 268.934662,71.981575 271.045013,84.407906 
	C271.671112,88.094559 270.351715,89.570923 266.890991,90.130501 
	C263.318909,90.708092 262.138458,89.000572 261.740967,85.830528 
	C261.183594,81.384995 260.396088,76.968315 259.679504,72.100616 
z"/>
<path fill="#000000" opacity="1.000000" stroke="none" 
	d="
M264.524261,146.564331 
	C270.032898,139.930725 276.301300,134.790237 283.660736,131.009247 
	C286.019501,129.797409 288.244934,128.105194 290.051971,132.097626 
	C291.514374,135.328613 291.834839,137.148392 288.110596,139.212845 
	C268.533142,150.065125 259.329498,167.108353 259.386108,189.282791 
	C259.400208,194.804321 260.446777,200.313431 262.662628,205.332581 
	C264.566772,209.645660 262.009155,210.384872 259.130981,211.729309 
	C255.515808,213.417953 254.708633,210.966080 253.903351,208.534149 
	C246.489700,186.145508 250.016144,165.581665 264.524261,146.564331 
z"/>
<path fill="#000000" opacity="1.000000" stroke="none" 
	d="
M281.205688,149.166931 
	C284.055573,147.112213 286.585083,145.205994 289.253113,143.518829 
	C291.361664,142.185471 293.647980,140.558517 295.316223,144.249268 
	C296.578613,147.042206 298.030304,149.153687 293.967712,151.527649 
	C278.886230,160.340302 272.122314,173.784454 273.271667,191.222855 
	C273.470764,194.244003 273.993164,197.232330 275.243958,199.936493 
	C277.250305,204.274094 274.114319,205.007492 271.346100,206.231323 
	C267.999603,207.710800 267.258240,205.313797 266.544220,203.039062 
	C260.457977,183.649109 264.528595,166.594193 278.419983,151.831573 
	C279.218140,150.983368 280.101410,150.215286 281.205688,149.166931 
z"/>
<path fill="#000000" opacity="1.000000" stroke="none" 
	d="
M277.819580,191.587494 
	C276.783112,176.696442 281.719543,164.976868 293.907715,156.798523 
	C295.736969,155.571075 298.111450,152.376694 300.552826,156.205414 
	C302.634186,159.469543 303.172180,162.059204 298.896912,164.756775 
	C289.047760,170.971298 284.565338,182.258682 287.662872,193.328369 
	C289.003845,198.120514 287.292572,199.895096 283.387207,200.793594 
	C278.855072,201.836273 279.601624,197.768387 278.672577,195.438202 
	C278.246155,194.368698 278.127899,193.176346 277.819580,191.587494 
z"/>
<path fill="#000000" opacity="1.000000" stroke="none" 
	d="
M298.468262,170.426666 
	C300.424500,168.852219 302.116028,167.525879 304.235748,167.048523 
	C308.843964,171.970444 308.776459,172.838135 304.324219,177.669159 
	C301.261963,180.991913 299.541687,185.026154 300.670685,189.521957 
	C301.849823,194.217392 298.210571,194.397614 295.669586,195.238800 
	C292.046234,196.438293 292.083191,193.137848 291.750641,191.089340 
	C290.478729,183.254059 292.387512,176.319458 298.468262,170.426666 
z"/>
</svg>